<?xml version="1.0" encoding="utf-8"?>
<!-- Generator: Adobe Illustrator 16.0.0, SVG Export Plug-In . SVG Version: 6.00 Build 0)  -->
<!DOCTYPE svg PUBLIC "-//W3C//DTD SVG 1.1//EN" "http://www.w3.org/Graphics/SVG/1.1/DTD/svg11.dtd">
<svg version="1.1" id="圖層_1" xmlns="http://www.w3.org/2000/svg" xmlns:xlink="http://www.w3.org/1999/xlink" x="0px" y="0px"
	 width="220px" height="37.304px" viewBox="0 0 220 37.304" enable-background="new 0 0 220 37.304" xml:space="preserve">
<g>
	<path fill="#AB0070" d="M23.168,1.833C23.236,1.17,23.487,0,23.871,0h-0.695h-5.429h-0.419H16.21c-1.298,0-2.752,1.2-2.752,2.487
		c0,0.024,0,0.024,0,0.052v1.09V9.46v0.023v18.622v1.556v6.08c0,0.633,0.066,0.569-0.296,1.414h0.691h2.723h2.706h0.421h1.132
		c1.288,0,2.757-0.781,2.757-2.072v-0.041v-1.094v-4.287v-1.556L23.349,9.423L23.168,1.833z M18.531,7.177
		c-1.272,0-2.292-1.021-2.292-2.291c0-1.247,1.02-2.29,2.292-2.29c1.266,0,2.288,1.042,2.288,2.29
		C20.819,6.155,19.797,7.177,18.531,7.177z"/>
	<path fill="#231815" d="M18.531,3.701c-0.652,0-1.193,0.533-1.193,1.185c0,0.665,0.541,1.195,1.193,1.195
		c0.659,0,1.196-0.53,1.196-1.195C19.728,4.234,19.19,3.701,18.531,3.701z"/>
	<path fill="#00897C" d="M12.729,0.154h-2.272h-0.043h-5.75l0,0H4.614l0,0H3.893H3.469H2.336C1.047,0.154,0,1.2,0,2.487
		c0,0.024,0,0.024,0,0.052l0,0v1.09V9.46l0,0v0.023h4.614h0.049V9.46h5.75h0.043h2.234V1.911h0.03
		c0.057-0.665,0.321-1.262,0.704-1.757H12.729z M4.614,9.46H2.717l0,0h1.176H4.614L4.614,9.46z"/>
	<path fill="#00897C" d="M36.996,0.187h-2.271h-0.04h-5.74l0,0h-0.054l0,0h-0.728h-0.42H26.61c-1.29,0-2.348,1.046-2.348,2.324
		c0,0.028,0,0.044,0,0.055l0,0v1.086v5.847l0,0l0,0h4.628h0.054l0,0h5.74h0.04h2.241v-7.56h0.025
		c0.061-0.664,0.322-1.272,0.711-1.752H36.996z M28.891,9.499h-1.912l0,0h1.185H28.891L28.891,9.499z"/>
	<g>
		<path fill="#006459" d="M54.105,14.324c-0.057,0.263-0.198,0.463-0.425,0.594c-0.417,0.208-0.889,0.323-1.417,0.341
			c-0.381,0-0.691-0.075-0.938-0.227c-0.15-0.114-0.218-0.322-0.199-0.625V8.903c0-0.15,0.038-0.217,0.113-0.199
			c1.21,0.209,2.271,0.55,3.18,1.023h2.014c0.055-0.039,0.406-0.313,1.049-0.824c0.075-0.075,0.179-0.084,0.312-0.028
			c0.965,0.284,1.853,0.671,2.668,1.163c0.528,0.324,0.451,0.625-0.228,0.909c-0.189,0.075-0.285,0.217-0.285,0.424v2.81
			c-0.019,0.303-0.178,0.529-0.481,0.681c-0.32,0.171-0.804,0.274-1.446,0.313c-0.437,0-0.738-0.096-0.909-0.284
			c-0.132-0.131-0.208-0.321-0.226-0.566H54.105z M54.163,13.698h2.752v-3.205c-0.076-0.132-0.181-0.18-0.313-0.143h-2.241
			l-0.198,0.029V13.698z M50.986,16.309c-0.098-0.058-0.114-0.142-0.058-0.256c0.058-0.058,0.15-0.075,0.284-0.058
			c0.094,0,0.35,0.049,0.766,0.144c1.285,0.322,2.155,0.859,2.61,1.616c0.169,0.454,0.132,0.909-0.113,1.362
			c-0.19,0.416-0.54,0.652-1.05,0.709c-1.061,0.096-1.617-0.396-1.676-1.474C51.809,17.463,51.553,16.78,50.986,16.309z
			 M56.519,19.826c0.32-1.059,0.452-2.212,0.396-3.461c0-0.208,0.009-0.378,0.027-0.511c0.019-0.112,0.124-0.168,0.313-0.168
			c0.851,0.096,1.737,0.246,2.666,0.454c0.396,0.094,0.604,0.235,0.624,0.425c0,0.188-0.181,0.331-0.538,0.425
			c-0.172,0.058-0.285,0.178-0.341,0.368c-0.436,0.738-1.052,1.486-1.844,2.242c1.379-0.246,2.761-0.587,4.142-1.021
			c0.112-0.018,0.207,0,0.282,0.059c0.039,0.094,0.019,0.17-0.056,0.225c-2.08,1.25-5.088,2.441-9.021,3.574
			c-1.174,0.285-1.759,0.521-1.759,0.711c-0.039,0.303-0.172,0.463-0.398,0.48c-0.264,0.02-0.464-0.121-0.596-0.424
			c-0.322-0.908-0.548-1.846-0.682-2.811c-0.038-0.168,0.038-0.254,0.228-0.254C51.213,20.177,53.396,20.072,56.519,19.826z
			 M57.112,3.656h0.256c0.207,0,0.351-0.058,0.426-0.171c0.283-0.416,0.662-0.877,1.137-1.39c0.188-0.227,0.405-0.266,0.65-0.114
			c0.662,0.435,1.248,0.992,1.759,1.674c0.172,0.17,0.217,0.32,0.143,0.453c-0.058,0.133-0.198,0.199-0.425,0.199h-3.945v2.78
			c0.058-0.018,0.096-0.056,0.115-0.114c0.281-0.416,0.66-0.877,1.133-1.39c0.189-0.225,0.407-0.254,0.652-0.085
			c0.663,0.417,1.249,0.965,1.761,1.646c0.171,0.17,0.217,0.332,0.142,0.482c-0.057,0.114-0.199,0.17-0.427,0.17h-7.034L51.61,7.997
			c-0.134,0.038-0.209,0.009-0.228-0.085c-0.076-0.264-0.152-0.54-0.227-0.824c-0.019-0.075,0.066-0.104,0.256-0.084l2.042,0.17
			h0.595V4.308h-1.39l-1.844,0.199c-0.132,0.038-0.208,0.01-0.226-0.085c-0.077-0.264-0.153-0.537-0.228-0.822
			c-0.02-0.074,0.065-0.103,0.255-0.084l2.042,0.142h1.39V0.649c0-0.114,0-0.246,0-0.398c-0.019-0.075,0.038-0.114,0.171-0.114
			c1.115,0.039,2.156,0.161,3.12,0.37c0.396,0.114,0.597,0.245,0.597,0.396c0,0.228-0.172,0.379-0.511,0.456
			c-0.227,0.057-0.332,0.162-0.313,0.312V3.656z M63.809,12.309V7.912h-0.143l-1.844,0.17c-0.131,0.057-0.207,0.038-0.228-0.057
			c-0.076-0.266-0.152-0.541-0.226-0.824c-0.02-0.093,0.065-0.132,0.255-0.114l2.042,0.17h0.143l0.028-6.355
			c-0.019-0.093-0.019-0.214,0-0.368c0-0.152,0.065-0.216,0.199-0.198c0.869,0.038,1.824,0.142,2.864,0.312
			c0.529,0.076,0.795,0.227,0.795,0.453c0,0.227-0.208,0.397-0.624,0.511c-0.152,0.02-0.227,0.095-0.227,0.227v4.426
			c0.132-0.15,0.264-0.284,0.396-0.398c0.151-0.207,0.341-0.235,0.569-0.085c0.567,0.379,1.059,0.86,1.474,1.447
			c0.171,0.171,0.219,0.333,0.144,0.483c-0.058,0.132-0.199,0.199-0.426,0.199h-2.156v13.333c-0.021,0.624-0.351,1.153-0.994,1.589
			c-0.682,0.473-1.617,0.719-2.809,0.736c-0.17-0.056-0.246-0.113-0.227-0.17c0.171-0.793-0.341-1.465-1.531-2.014
			c-0.189-0.02-0.274-0.105-0.256-0.255c0.038-0.132,0.122-0.198,0.256-0.198c1.36,0.037,2.127-0.008,2.296-0.143
			c0.152-0.15,0.229-0.303,0.229-0.454v-5.475c-0.322,0.284-0.71,0.416-1.164,0.397c-0.51-0.057-0.888-0.255-1.133-0.596
			c-0.209-0.339-0.256-0.747-0.143-1.22c0.322-0.945,0.226-1.776-0.284-2.496c-0.075-0.113-0.075-0.199,0-0.256
			c0.075-0.074,0.181-0.093,0.313-0.056l0.085,0.028c1.191,0.491,1.787,0.736,1.787,0.736S63.448,11.704,63.809,12.309z
			 M47.325,9.472v13.049c0,0.416-0.235,0.729-0.71,0.936c-0.624,0.189-1.247,0.152-1.87-0.113c-0.304-0.15-0.454-0.387-0.454-0.708
			v-8.057c-0.852,1.229-1.599,2.091-2.241,2.583c-0.172,0.095-0.312,0.113-0.427,0.057c-0.076-0.114-0.076-0.228,0-0.341
			c1.249-2.382,2.137-5.542,2.668-9.475v-0.2V6.578h-0.369l-1.845,0.2c-0.134,0.038-0.209,0.01-0.227-0.085
			c-0.075-0.266-0.152-0.54-0.228-0.824c-0.019-0.075,0.066-0.103,0.255-0.085l2.044,0.142h0.369l0.027-5.333
			c0-0.076-0.009-0.161-0.027-0.255c0-0.076,0.065-0.124,0.197-0.142c0.964,0.075,1.967,0.188,3.009,0.34
			c0.527,0.096,0.794,0.275,0.794,0.539c-0.02,0.247-0.236,0.426-0.653,0.54c-0.188,0.038-0.282,0.16-0.282,0.369l-0.03,3.943
			c0.096-0.057,0.181-0.114,0.256-0.17c0.284-0.416,0.661-0.878,1.135-1.39c0.188-0.228,0.407-0.264,0.653-0.114
			c0.66,0.437,1.247,0.995,1.758,1.674c0.172,0.172,0.217,0.323,0.141,0.455c-0.055,0.132-0.196,0.198-0.425,0.198h-3.518v1.843
			c0.096,0.039,0.228,0.105,0.398,0.199c1.76,0.946,2.779,2.033,3.063,3.263c0.113,0.416,0.029,0.842-0.254,1.276
			c-0.266,0.379-0.633,0.579-1.107,0.597c-0.491,0-0.86-0.151-1.106-0.456c-0.227-0.264-0.332-0.633-0.313-1.104
			C48.023,11.099,47.799,10.189,47.325,9.472z"/>
		<path fill="#006459" d="M76.393,1.464c0.055-0.113,0.094-0.237,0.112-0.369C76.524,1,76.59,0.963,76.704,0.982
			c1.021,0.208,1.996,0.501,2.922,0.879c0.342,0.17,0.502,0.35,0.483,0.54c-0.075,0.188-0.313,0.283-0.711,0.283
			c-0.131,0-0.234,0.046-0.311,0.143c-1.702,2.061-3.698,3.565-5.984,4.51c-0.098,0.04-0.173,0.028-0.229-0.028
			c-0.039-0.076-0.028-0.152,0.026-0.228C74.548,5.511,75.711,3.64,76.393,1.464z M95.457,12.075
			c-0.21-0.057-0.378-0.114-0.512-0.171c-0.169-0.13-0.265-0.322-0.282-0.568H83.655c0,0.438-0.151,0.729-0.453,0.879
			c-0.398,0.19-0.853,0.293-1.363,0.313c-0.378,0-0.69-0.065-0.936-0.198c-0.132-0.094-0.19-0.293-0.17-0.596V7.223
			c-0.113,0.096-0.284,0.142-0.512,0.142c-0.207,0.058-0.369,0.161-0.481,0.312c-0.53,0.833-1.089,1.627-1.673,2.384v12.595
			c0,0.38-0.2,0.644-0.598,0.796c-0.604,0.227-1.229,0.217-1.872-0.029c-0.302-0.131-0.445-0.387-0.426-0.767V13.01
			c-0.87,0.681-1.739,1.249-2.609,1.702c-0.133,0.058-0.237,0.058-0.312,0l-0.028-0.028c-0.02-0.038,0.51-0.739,1.589-2.099
			c1.076-1.569,2.222-3.876,3.432-6.922c0.057-0.114,0.181-0.152,0.371-0.114c1.795,0.436,2.835,0.814,3.119,1.134V5.748
			c0-0.151,0.038-0.218,0.114-0.199c0.981,0.189,1.899,0.473,2.751,0.851l0.539,0.028h3.319V4.046h-4.795l-1.675,0.198
			c-0.188,0.075-0.292,0.058-0.312-0.057c-0.114-0.264-0.208-0.548-0.283-0.853c-0.038-0.114,0.066-0.142,0.312-0.084l1.958,0.142
			h4.795V1.237c0-0.114,0-0.246,0-0.397c-0.021-0.076,0.038-0.113,0.169-0.113c1.116,0.038,2.156,0.161,3.12,0.369
			c0.399,0.114,0.598,0.245,0.598,0.397c0,0.227-0.17,0.378-0.512,0.452c-0.227,0.058-0.329,0.162-0.313,0.313v1.134h2.64
			c0.207,0,0.367-0.057,0.481-0.171c0.435-0.529,0.917-1.039,1.446-1.532c0.151-0.111,0.322-0.121,0.512-0.026
			c0.982,0.491,1.797,1.116,2.439,1.871c0.133,0.135,0.171,0.248,0.113,0.341c-0.075,0.114-0.235,0.172-0.481,0.172h-7.15v2.381
			h3.179c0.435,0.057,0.709,0,0.821-0.17c0.152-0.264,0.37-0.548,0.652-0.851c0.133-0.093,0.295-0.104,0.484-0.028
			c1.039,0.302,1.88,0.654,2.522,1.049c0.549,0.359,0.454,0.671-0.281,0.937c-0.191,0.058-0.285,0.161-0.285,0.312v3.405
			c0,0.359-0.208,0.634-0.623,0.823c-0.208,0.058-0.38,0.104-0.51,0.142c0.811,0.455,1.483,0.993,2.014,1.615
			c0.132,0.134,0.17,0.248,0.114,0.342c-0.077,0.113-0.238,0.17-0.483,0.17H82.095l-1.674,0.199
			c-0.189,0.057-0.293,0.039-0.312-0.058c-0.113-0.284-0.209-0.566-0.285-0.849c-0.037-0.114,0.066-0.152,0.313-0.114l1.957,0.169
			h11.717c0.227-0.018,0.379-0.084,0.455-0.199c0.377-0.435,0.566-0.653,0.566-0.653S95.041,12.472,95.457,12.075z M92.732,10.683
			h1.959V7.167c-0.113-0.132-0.238-0.16-0.369-0.086h-1.59V10.683z M88.194,10.683h1.844V7.081h-1.844V10.683z M83.655,10.683h1.844
			V7.081h-1.361l-0.482,0.058V10.683z M81.868,16.586c0.019-0.114,0.066-0.18,0.143-0.2c0.114,0,0.179,0.057,0.196,0.171
			c0.341,0.87,0.455,1.777,0.341,2.723c-0.095,0.927-0.407,1.653-0.936,2.184c-0.378,0.32-0.833,0.49-1.363,0.51
			c-0.511-0.02-0.915-0.17-1.218-0.453c-0.152-0.152-0.228-0.303-0.228-0.453c-0.209-0.756,0.113-1.305,0.965-1.646
			C80.865,18.817,81.565,17.872,81.868,16.586z M83.541,16.641c0-0.226,0.01-0.491,0.028-0.794c-0.019-0.094,0.066-0.15,0.257-0.17
			c0.85,0.038,1.758,0.142,2.723,0.313c0.491,0.095,0.737,0.245,0.737,0.454c-0.283,0.265-0.549,0.539-0.795,0.823v2.552
			c0,0.152,0.039,0.322,0.115,0.512c0.094,0.17,0.236,0.293,0.424,0.369c0.058,0,0.124,0.01,0.2,0.028
			c2.609,0.17,4.367,0.114,5.275-0.171c0.453-0.227,0.86-0.906,1.222-2.042c0.073-0.152,0.178-0.218,0.311-0.2
			c0.152,0,0.236,0.086,0.256,0.256c0.076,1.117,0.284,1.769,0.623,1.958c0.532,0.209,0.795,0.54,0.795,0.993
			c-0.019,0.434-0.293,0.766-0.822,0.994c-0.662,0.281-1.399,0.463-2.212,0.537c-0.758,0.057-1.941,0.086-3.549,0.086
			c-2.005-0.02-3.355-0.17-4.056-0.455c-0.604-0.264-1.021-0.615-1.247-1.049c-0.171-0.416-0.257-0.821-0.257-1.219L83.541,16.641z
			 M87.145,15.166c-0.114-0.037-0.162-0.112-0.142-0.226c0.037-0.095,0.121-0.142,0.255-0.142c0.113,0,0.436,0.01,0.965,0.029
			c1.645,0.132,2.837,0.605,3.575,1.417c0.321,0.397,0.442,0.851,0.368,1.362c-0.076,0.454-0.349,0.775-0.822,0.964
			c-1.041,0.323-1.76-0.037-2.157-1.078C88.846,16.415,88.166,15.638,87.145,15.166z M93.868,16.669
			c-0.095-0.075-0.133-0.169-0.114-0.283c0.075-0.095,0.181-0.131,0.313-0.113c0.019,0,0.066,0.01,0.143,0.029
			c2.553,0.586,4.236,1.616,5.049,3.092c0.246,0.473,0.257,0.973,0.029,1.503c-0.171,0.491-0.54,0.794-1.108,0.907
			c-1.172,0.17-1.842-0.34-2.013-1.531C95.882,18.626,95.116,17.426,93.868,16.669z"/>
		<path fill="#006459" d="M110.589,11.526v10.922c-0.02,0.436-0.266,0.737-0.737,0.908c-0.644,0.189-1.286,0.16-1.931-0.085
			c-0.34-0.153-0.511-0.427-0.511-0.823v-8.795c-0.643,2.517-1.994,4.314-4.056,5.391c-0.209,0.114-0.379,0.114-0.512,0
			c-0.093-0.131-0.075-0.256,0.057-0.369c1.911-2.705,3.378-6.071,4.398-10.099h-2.469l-1.844,0.198
			c-0.133,0.039-0.208,0.011-0.226-0.084c-0.077-0.264-0.154-0.54-0.228-0.824c-0.021-0.074,0.065-0.103,0.254-0.084l2.043,0.142
			h2.581V3.952c-1.115,0.227-2.591,0.416-4.425,0.567c-0.265,0.018-0.407-0.028-0.425-0.142c-0.021-0.132,0.064-0.227,0.255-0.284
			c3.764-1.059,6.478-2.203,8.144-3.433c0.206-0.171,0.377-0.217,0.508-0.143c1.004,0.359,1.911,0.785,2.724,1.277
			c0.36,0.266,0.501,0.503,0.428,0.71c-0.114,0.208-0.407,0.274-0.881,0.198c-0.228-0.018-1.276,0.208-3.148,0.68v4.54h0.113
			c0.227,0,0.377-0.065,0.453-0.199c0.321-0.434,0.72-0.936,1.191-1.504c0.189-0.206,0.426-0.235,0.709-0.082
			c0.72,0.453,1.361,1.048,1.931,1.785c0.169,0.171,0.217,0.323,0.141,0.454c-0.056,0.132-0.198,0.2-0.426,0.2h-4.112v2.07
			c0.132,0,0.255,0.028,0.37,0.085c1.833,0.549,3.118,1.391,3.857,2.526c0.245,0.455,0.271,0.927,0.083,1.418
			c-0.15,0.455-0.481,0.737-0.99,0.851c-0.513,0.095-0.947,0.02-1.306-0.228c-0.343-0.283-0.55-0.662-0.625-1.135
			C111.789,13.068,111.326,12.188,110.589,11.526z M121.709,15.102l-7.999,1.53l-1.589,0.512c-0.134,0.019-0.229,0-0.286-0.057
			c-0.17-0.208-0.32-0.388-0.451-0.539c-0.096-0.131-0.048-0.208,0.141-0.227l2.015-0.313l8.17-1.56l0.028-13.333
			c-0.02-0.132-0.028-0.228-0.028-0.284c0-0.094,0.065-0.143,0.199-0.143c0.982,0.077,2.023,0.191,3.12,0.341
			c0.567,0.114,0.852,0.294,0.852,0.54c0,0.265-0.236,0.454-0.708,0.567c-0.19,0.056-0.286,0.19-0.286,0.397l-0.027,10.78
			c0.246-0.435,0.519-0.813,0.822-1.136c0.133-0.188,0.294-0.244,0.482-0.169c1.003,0.189,2.023,0.538,3.064,1.05
			c0.169,0.113,0.255,0.227,0.255,0.341c-0.038,0.132-0.123,0.218-0.255,0.254l-4.369,0.853v8c-0.019,0.415-0.265,0.727-0.737,0.935
			c-0.644,0.209-1.288,0.18-1.931-0.084c-0.32-0.171-0.481-0.416-0.481-0.738V15.102z M115.44,3.498
			c-0.114-0.075-0.162-0.161-0.143-0.257c0.018-0.093,0.114-0.14,0.282-0.14c0.133-0.018,0.483,0,1.051,0.056
			c1.703,0.208,2.95,0.756,3.744,1.646c0.322,0.472,0.426,0.983,0.313,1.531c-0.111,0.493-0.434,0.834-0.964,1.023
			c-1.174,0.321-1.93-0.104-2.27-1.276C117.096,4.833,116.423,3.97,115.44,3.498z M114.929,9.37
			c-0.095-0.076-0.133-0.167-0.112-0.282c0.055-0.096,0.15-0.132,0.282-0.114c0.17,0.018,0.521,0.084,1.05,0.196
			c1.722,0.324,2.923,1.005,3.604,2.043c0.245,0.473,0.274,0.984,0.085,1.532c-0.171,0.493-0.52,0.795-1.05,0.907
			c-0.057,0-0.095,0.01-0.113,0.029c-1.153,0.133-1.815-0.368-1.985-1.504C116.479,10.873,115.894,9.938,114.929,9.37z"/>
		<path fill="#006459" d="M149.832,20.041c-0.056,0.021-0.095,0.038-0.114,0.057c-2.893,1.816-6.155,2.932-9.786,3.348
			c-0.228,0-0.352-0.049-0.369-0.143c-0.038-0.095,0.038-0.16,0.228-0.197c1.947-0.625,3.801-1.38,5.559-2.27
			c1.173-0.699,2.213-1.4,3.123-2.1c-0.796-0.87-1.429-1.834-1.901-2.894c-1.06-2.08-1.59-3.545-1.59-4.397h-0.396l-1.56,0.199
			c-0.248,0.039-0.38,0.029-0.398-0.029c-0.094-0.264-0.179-0.54-0.255-0.823c0-0.093,0.095-0.141,0.283-0.141l1.93,0.141h3.488
			V6.055h-4.566c0.074,0.076,0.15,0.17,0.228,0.282c0.169,0.171,0.218,0.333,0.143,0.483c-0.058,0.114-0.201,0.17-0.427,0.17h-3.915
			v3.688c1.267-0.547,2.524-1.085,3.772-1.615c0.171-0.039,0.284-0.029,0.341,0.029c0.037,0.074,0.019,0.168-0.057,0.282
			c-1.438,0.945-2.79,1.826-4.057,2.64v9.162c0,0.604-0.341,1.143-1.021,1.616c-0.682,0.474-1.628,0.718-2.838,0.739
			c-0.189-0.039-0.283-0.086-0.283-0.141c0-0.986-0.71-1.695-2.128-2.131c-0.209-0.037-0.304-0.131-0.284-0.281
			c0.037-0.152,0.122-0.229,0.256-0.229c1.777,0.096,2.752,0.076,2.921-0.055c0.152-0.153,0.228-0.303,0.228-0.457v-6.326
			c-1.097,0.606-1.655,1.031-1.673,1.277c0,0.322-0.114,0.511-0.34,0.568c-0.283,0.057-0.54-0.085-0.767-0.426
			c-0.455-0.888-0.804-1.786-1.051-2.695c-0.038-0.188,0.057-0.284,0.285-0.284c1.208-0.208,2.392-0.452,3.545-0.737V6.99h-1.673
			l-1.844,0.2c-0.134,0.038-0.209,0.01-0.228-0.085c-0.076-0.264-0.152-0.54-0.227-0.823c-0.021-0.076,0.064-0.104,0.254-0.085
			l2.044,0.17h1.673l0.028-5.389c-0.019-0.114-0.019-0.246,0-0.397c0-0.151,0.066-0.218,0.199-0.2
			c0.906,0.039,1.901,0.142,2.979,0.313c0.548,0.076,0.822,0.238,0.822,0.482c-0.019,0.228-0.235,0.397-0.652,0.512
			c-0.151,0.018-0.227,0.104-0.227,0.253v4.427h0.369c0.208-0.019,0.35-0.084,0.426-0.198c0.283-0.397,0.661-0.842,1.135-1.334
			c0.15-0.208,0.35-0.235,0.595-0.085c0.283,0.191,0.567,0.407,0.852,0.653h5.162V0.863c0-0.095-0.009-0.228-0.027-0.398
			c0-0.057,0.064-0.085,0.199-0.085c1.19,0.039,2.279,0.152,3.263,0.341c0.396,0.133,0.596,0.275,0.596,0.425
			c0,0.228-0.18,0.388-0.538,0.483c-0.229,0.057-0.333,0.168-0.313,0.339v3.433h2.523c0.228,0,0.398-0.064,0.513-0.199
			c0.453-0.547,0.963-1.096,1.532-1.646c0.15-0.131,0.34-0.142,0.566-0.028c1.077,0.53,1.967,1.202,2.666,2.015
			c0.132,0.131,0.171,0.245,0.113,0.341c-0.075,0.113-0.236,0.17-0.481,0.17h-7.433v4.737h1.702l1.191-0.851
			c0.132-0.17,0.351-0.207,0.651-0.114c1.098,0.38,1.969,0.805,2.611,1.276c0.208,0.171,0.303,0.351,0.283,0.54
			c-0.02,0.208-0.293,0.37-0.822,0.482c-0.229,0.057-0.38,0.19-0.454,0.396c-0.719,1.741-1.599,3.178-2.64,4.313
			c-0.51,0.511-1.029,1.002-1.558,1.474c2.74,1.364,5.105,2.121,7.09,2.271c0.189,0.02,0.294,0.076,0.314,0.17
			c0.036,0.114-0.04,0.2-0.228,0.256c-1.495,0.36-2.498,1.135-3.008,2.326c-0.095,0.15-0.264,0.178-0.511,0.086
			c-2.497-0.967-3.745-1.447-3.745-1.447S151.363,21.328,149.832,20.041z M147.592,14.793c0.681,0.831,1.54,1.607,2.579,2.325
			c0.492-0.565,0.967-1.163,1.419-1.788c0.719-1.059,1.259-2.193,1.619-3.403c0.056-0.227,0.074-0.369,0.056-0.426
			c-0.019-0.057-0.095-0.075-0.226-0.057h-7.406C146.067,12.6,146.721,13.716,147.592,14.793z"/>
		<path fill="#006459" d="M176.225,10.134c-0.36,2.439-1.059,4.557-2.099,6.354c-2.535,3.65-6.393,5.787-11.576,6.411
			c-0.171,0.019-0.266-0.019-0.283-0.113c0-0.097,0.064-0.171,0.199-0.226c1.72-0.606,3.403-1.486,5.048-2.641
			c1.684-1.209,3.008-2.666,3.974-4.368c1.021-1.778,1.654-4.17,1.9-7.178h-8.396l-1.674,0.227
			c-0.191,0.057-0.296,0.028-0.313-0.084c-0.113-0.265-0.209-0.549-0.283-0.853c-0.039-0.111,0.065-0.14,0.312-0.083l1.959,0.168
			h8.452c0.152-1.909,0.228-4.283,0.228-7.12c0-0.114,0.058-0.16,0.17-0.142c1.021,0.039,2.052,0.124,3.093,0.255
			c0.49,0.096,0.738,0.248,0.738,0.456c0,0.208-0.208,0.368-0.624,0.479c-0.171,0.039-0.257,0.114-0.257,0.228
			c0,2.006-0.094,3.954-0.284,5.844h6.782c0.245,0,0.435-0.083,0.566-0.254c0.492-0.568,1.03-1.143,1.616-1.73
			c0.152-0.152,0.352-0.171,0.598-0.057c1.152,0.586,2.128,1.315,2.922,2.183c0.131,0.113,0.17,0.219,0.112,0.313
			c-0.074,0.113-0.236,0.17-0.481,0.17h-12.058c0.322,1.874,1.05,3.689,2.185,5.447c2.515,3.613,5.901,5.844,10.157,6.694
			c0.112,0.02,0.18,0.076,0.197,0.172c-0.018,0.096-0.095,0.16-0.226,0.198c-1.192,0.359-1.958,1.04-2.298,2.042
			c-0.076,0.113-0.199,0.143-0.369,0.084c-1.418-0.527-3.008-1.389-4.767-2.58c-2.781-2.098-4.17-3.149-4.17-3.149
			S176.924,14.9,176.225,10.134z"/>
		<path fill="#006459" d="M206.012,4.081c-1.058,0.586-2.071,1.023-3.035,1.307c-0.113,0.018-0.181,0.008-0.199-0.028
			c-0.038-0.076-0.028-0.143,0.029-0.2c0.774-0.604,1.475-1.286,2.1-2.044c0-0.036,0.009-0.063,0.028-0.084
			c-0.492-0.415-1.059-0.708-1.701-0.878c-0.097-0.019-0.143-0.076-0.143-0.171s0.065-0.152,0.198-0.17
			c0.624-0.093,1.418-0.037,2.384,0.17c0.207-0.341,0.481-0.86,0.822-1.56c0.037-0.075,0.094-0.104,0.169-0.085
			c0.89,0.302,1.712,0.671,2.471,1.105c0.301,0.189,0.414,0.37,0.339,0.54c-0.095,0.152-0.323,0.199-0.682,0.142
			c-0.113,0-0.207,0.039-0.283,0.114c-0.228,0.188-0.453,0.377-0.681,0.566c0.246,0.114,0.453,0.255,0.624,0.425
			c0.34,0.303,0.511,0.69,0.511,1.163c0,0.417-0.199,0.729-0.597,0.938c-0.377,0.188-0.766,0.207-1.162,0.057
			C206.922,5.273,206.523,4.838,206.012,4.081z M205.587,9.017c-1.493,0.605-2.78,0.985-3.858,1.135
			c-0.113,0.021-0.179,0-0.198-0.056c-0.02-0.058,0.01-0.115,0.085-0.171c0.964-0.528,1.872-1.153,2.723-1.872
			c0.038-0.075,0.086-0.113,0.143-0.113c-0.587-0.473-1.229-0.795-1.93-0.966c-0.095-0.018-0.141-0.074-0.141-0.168
			c0-0.096,0.066-0.152,0.198-0.17c0.812-0.132,1.768-0.03,2.864,0.31c0.436-0.491,0.822-0.975,1.163-1.446
			c0.076-0.075,0.151-0.094,0.227-0.057c0.777,0.455,1.485,0.955,2.128,1.503c0.266,0.21,0.342,0.397,0.228,0.567
			c-0.132,0.114-0.369,0.125-0.709,0.029c-0.094-0.018-0.199,0-0.311,0.057c-0.209,0.114-0.38,0.228-0.514,0.341
			c0.625,0.302,0.938,0.795,0.938,1.475c0,0.416-0.198,0.729-0.597,0.936c-0.379,0.191-0.767,0.209-1.164,0.058
			c-0.339-0.151-0.633-0.424-0.879-0.822C205.853,9.358,205.719,9.17,205.587,9.017z M195.316,11.485
			c0.151,1.136,0.028,1.987-0.368,2.555c-0.397,0.359-0.861,0.547-1.39,0.566c-0.512,0-0.945-0.15-1.306-0.452
			c-0.284-0.322-0.368-0.701-0.256-1.137c0.114-0.472,0.426-0.839,0.938-1.106c0.754-0.453,1.218-1.134,1.39-2.041
			c0.018-0.114,0.064-0.181,0.141-0.2c0.093,0,0.171,0.058,0.228,0.171c0.15,0.302,0.293,0.604,0.425,0.907l0.312,0.029
			l-0.509-8.852c0-0.206,0.093-0.301,0.282-0.284c0.757,0.132,1.599,0.37,2.525,0.709c1.04-0.699,1.873-1.408,2.496-2.128
			c0.058-0.056,0.143-0.046,0.257,0.028c0.756,0.454,1.427,0.984,2.014,1.589c0.263,0.322,0.331,0.558,0.198,0.708
			c-0.153,0.17-0.38,0.17-0.681,0c-0.133-0.019-0.284,0-0.454,0.057c-1.324,0.417-2.497,0.654-3.518,0.71l0.084,1.788h0.369
			c0.208,0,0.35-0.047,0.425-0.143c0.285-0.376,0.652-0.814,1.107-1.304c0.15-0.208,0.35-0.237,0.595-0.085
			c0.587,0.378,1.106,0.889,1.562,1.532c0.17,0.17,0.218,0.32,0.142,0.453c-0.057,0.132-0.2,0.198-0.427,0.198h-3.715l0.113,2.1
			h0.313c0.208,0,0.35-0.057,0.425-0.169c0.283-0.378,0.652-0.813,1.106-1.305c0.152-0.19,0.351-0.208,0.596-0.058
			c0.587,0.379,1.106,0.88,1.561,1.504c0.17,0.17,0.219,0.331,0.143,0.483c-0.058,0.132-0.2,0.196-0.426,0.196h-3.688l0.141,2.271
			h14.043l0.198-2.271h-1.049l-1.703,0.143c-0.151,0.038-0.235,0.028-0.254-0.029c-0.096-0.282-0.181-0.556-0.255-0.822
			c0-0.075,0.094-0.103,0.282-0.085l1.93,0.142h1.106l0.228-2.1h-1.334l-1.703,0.17c-0.151,0.021-0.235,0-0.254-0.057
			c-0.096-0.284-0.181-0.548-0.255-0.792c0-0.076,0.094-0.115,0.282-0.115l1.93,0.143h1.39l0.255-2.271h-1.19l-1.56,0.17
			c-0.247,0.077-0.379,0.066-0.397-0.029c-0.076-0.264-0.151-0.538-0.228-0.821c-0.019-0.096,0.066-0.132,0.256-0.114l1.929,0.142
			h0.538c0.228-0.018,0.38-0.085,0.455-0.199c0.283-0.284,0.604-0.53,0.963-0.738c0.095-0.058,0.201-0.058,0.313,0
			c0.831,0.359,1.597,0.803,2.298,1.332c0.453,0.398,0.368,0.7-0.256,0.909c-0.134,0.039-0.208,0.151-0.226,0.341l-0.626,6.694
			c0.266-0.228,0.578-0.425,0.937-0.597c0.171-0.037,0.322-0.026,0.454,0.028c1.021,0.437,1.956,0.948,2.809,1.532
			c0.209,0.17,0.273,0.333,0.198,0.483c-0.151,0.151-0.378,0.228-0.683,0.228c-0.13-0.018-0.262,0-0.396,0.056
			c-1.475,0.775-2.79,1.418-3.942,1.929c-0.246,0.058-0.397,0.058-0.454,0c-0.057-0.094-0.057-0.216,0-0.369
			c0.49-0.813,0.889-1.606,1.191-2.383h-19.348L195.316,11.485z M207.288,17.954v3.291c0,0.604-0.34,1.146-1.021,1.618
			c-0.682,0.473-1.628,0.717-2.837,0.736c-0.169-0.039-0.257-0.085-0.257-0.143c0.115-0.85-0.452-1.521-1.701-2.014
			c-0.208-0.038-0.301-0.133-0.283-0.283c0.038-0.15,0.125-0.227,0.255-0.227c1.476,0.037,2.298-0.008,2.469-0.143
			c0.151-0.133,0.227-0.293,0.227-0.48v-2.356h-9.503l-1.674,0.198c-0.19,0.075-0.294,0.057-0.313-0.057
			c-0.113-0.264-0.209-0.548-0.284-0.85c-0.038-0.114,0.064-0.143,0.313-0.085l1.958,0.142h9.503l0.028-1.503
			c-0.018-0.114-0.018-0.237,0-0.369c0-0.171,0.066-0.246,0.198-0.228c0.775,0.057,1.598,0.142,2.469,0.256
			c0.661-0.548,1.258-1.106,1.788-1.674h-8.427l-1.561,0.199c-0.244,0.057-0.379,0.057-0.396,0c-0.096-0.321-0.18-0.624-0.255-0.908
			c-0.039-0.133,0.057-0.17,0.284-0.113l1.928,0.197h8.002c0.168,0,0.32-0.046,0.452-0.142c0.322-0.246,0.69-0.442,1.107-0.594
			c0.17-0.058,0.321-0.04,0.454,0.056c0.964,0.491,1.823,1.07,2.581,1.731c0.15,0.207,0.171,0.387,0.057,0.538
			c-0.057,0.039-0.341,0.057-0.852,0.057c-0.075,0.02-1.36,0.464-3.859,1.334c-0.075,0.152-0.282,0.274-0.623,0.368
			c-0.151,0.038-0.228,0.123-0.228,0.255v0.54h6.44c0.246,0,0.435-0.075,0.568-0.227c0.489-0.587,1.03-1.173,1.616-1.76
			c0.15-0.131,0.352-0.142,0.596-0.028c1.153,0.585,2.127,1.304,2.922,2.155c0.133,0.133,0.172,0.248,0.113,0.341
			c-0.075,0.114-0.236,0.171-0.482,0.171H207.288z"/>
	</g>
	<g>
		<path fill="#00897C" d="M49.635,31.13c-0.269-0.873-1.169-2.311-2.938-2.311c-0.78,0-1.605,0.373-1.605,1.186
			c0,0.676,0.285,0.95,1.546,1.477l2.202,0.912c0.511,0.212,1.65,0.936,1.65,2.299c0,1.1-0.96,2.611-3.719,2.611
			c-1.424,0-2.101-0.424-2.563-0.424c-0.315,0-0.392,0.225-0.451,0.424h-0.436v-3.087h0.436c0.3,1.263,1.17,2.675,3.073,2.675
			c1.801,0,1.875-1.238,1.875-1.398c0-0.838-0.705-1.139-1.68-1.525l-1.005-0.4c-2.563-1.025-2.563-2.1-2.563-2.674
			c0-0.763,0.465-2.461,3.313-2.461c1.2,0,1.904,0.41,2.34,0.41c0.346,0,0.419-0.187,0.494-0.424h0.45v2.711H49.635z"/>
		<path fill="#00897C" d="M63.643,37.066h-5.099v-0.311c0.796-0.076,1.349-0.126,1.349-0.888v-2.875h-3.613v2.875
			c0,0.762,0.555,0.812,1.35,0.888v0.311h-5.054v-0.311c0.795-0.088,1.274-0.151,1.274-0.888v-6.049
			c0-0.813-0.645-0.837-1.274-0.888v-0.313h5.054v0.313c-0.66,0.038-1.35,0.063-1.35,0.888v2.587h3.613v-2.587
			c0-0.825-0.689-0.85-1.349-0.888v-0.313h5.099v0.313c-0.645,0.038-1.319,0.075-1.319,0.888v6.049c0,0.749,0.523,0.8,1.319,0.888
			V37.066z"/>
		<path fill="#00897C" d="M75.565,28.931c-0.826,0.1-1.171,0.238-1.171,1.063v3.986c0,0.738-0.21,1.85-0.839,2.412
			c-0.751,0.674-2.056,0.912-2.955,0.912c-0.661,0-2.07-0.074-3.045-0.787c-0.645-0.475-1.035-0.912-1.035-2.263v-4.173
			c0-1.051-0.389-1.075-1.228-1.15v-0.313h5.067v0.313c-0.989,0.038-1.454,0.051-1.454,1.15v4.173c0,0.712,0,2.438,2.159,2.438
			c2.64,0,2.671-1.911,2.671-2.712v-3.811c0-0.764-0.181-1.188-1.471-1.238v-0.313h3.3V28.931z"/>
		<path fill="#00897C" d="M81.308,34.931h-3.643V33.48h3.643V34.931z"/>
		<path fill="#00897C" d="M90.815,37.066h-5.354v-0.311c1.094-0.076,1.456-0.102,1.456-1.15v-6.586
			c-1.051,0.051-2.595,0.113-2.896,2.111h-0.435l0.046-2.512h8.997l0.029,2.512h-0.433c-0.303-1.998-1.848-2.061-2.881-2.111v6.586
			c0,1.063,0.359,1.087,1.47,1.15V37.066z"/>
		<path fill="#00897C" d="M94.487,28.619h8.655v2.512h-0.376c-0.345-1.774-1.409-2.086-3.435-2.086
			c-0.825,0-1.093,0.049-1.093,0.587v2.899c1.438,0.012,2.203-0.313,2.428-1.861h0.391v4.223h-0.391
			c-0.18-1.563-0.944-1.936-2.428-1.936v3.023c0,0.549,0.282,0.699,1.259,0.699c1.469,0,2.999-0.325,3.943-2.213h0.42l-0.6,2.6
			h-8.774v-0.311c0.855-0.076,1.321-0.113,1.321-0.888v-6.049c0-0.825-0.63-0.85-1.321-0.888V28.619z"/>
		<path fill="#00897C" d="M125.842,28.931c-0.823,0.1-1.168,0.238-1.168,1.063v3.986c0,0.738-0.21,1.85-0.84,2.412
			c-0.75,0.674-2.055,0.912-2.955,0.912c-0.66,0-2.069-0.074-3.043-0.787c-0.645-0.475-1.036-0.912-1.036-2.263v-4.173
			c0-1.051-0.39-1.075-1.229-1.15v-0.313h5.069v0.313c-0.99,0.038-1.456,0.051-1.456,1.15v4.173c0,0.712,0,2.438,2.159,2.438
			c2.641,0,2.672-1.911,2.672-2.712v-3.811c0-0.764-0.181-1.188-1.472-1.238v-0.313h3.299V28.931z"/>
		<path fill="#00897C" d="M127.522,36.755c0.899-0.088,1.32-0.176,1.32-1.001v-5.923c-0.841-0.862-1.081-0.9-1.275-0.9v-0.313h3.165
			l5.203,5.337h0.029v-3.786c0-0.75-0.178-1.163-1.393-1.238v-0.313h3.224v0.313c-1.081,0.113-1.171,0.4-1.171,1v7.361h-0.42
			l-6.673-6.773h-0.031v4.999c0,0.899,0.314,1.136,1.426,1.237v0.311h-3.404V36.755z"/>
		<path fill="#00897C" d="M144.782,37.066h-5.248v-0.311c0.809-0.063,1.396-0.113,1.396-0.888v-6.049
			c0-0.825-0.706-0.85-1.396-0.888v-0.313h5.248v0.313c-0.704,0.025-1.424,0.038-1.424,0.888v6.049c0,0.8,0.601,0.836,1.424,0.888
			V37.066z"/>
		<path fill="#00897C" d="M156.704,28.931c-0.824,0.088-1.019,0.324-1.349,1.023l-3.418,7.338h-0.406l-3.839-7.486
			c-0.391-0.75-0.615-0.787-1.26-0.875v-0.313h5.038v0.313c-0.945,0.051-1.289,0.051-1.289,0.525c0,0.238,0.301,0.762,0.45,1.074
			l1.965,3.949l1.904-4.111c0.133-0.287,0.299-0.613,0.299-0.863c0-0.486-0.434-0.536-1.289-0.574v-0.313h3.193V28.931z"/>
		<path fill="#00897C" d="M158.384,28.619h8.653v2.512h-0.376c-0.344-1.774-1.408-2.086-3.435-2.086
			c-0.823,0-1.093,0.049-1.093,0.587v2.899c1.439,0.012,2.203-0.313,2.43-1.861h0.389v4.223h-0.389
			c-0.181-1.563-0.946-1.936-2.43-1.936v3.023c0,0.549,0.283,0.699,1.259,0.699c1.471,0,3-0.325,3.943-2.213h0.42l-0.6,2.6h-8.772
			v-0.311c0.855-0.076,1.32-0.113,1.32-0.888v-6.049c0-0.825-0.63-0.85-1.32-0.888V28.619z"/>
		<path fill="#00897C" d="M173.41,29.569c0.075-0.388,0.105-0.524,0.931-0.524c1.199,0,1.813,0.537,1.813,1.799
			c0,1.625-0.78,1.9-2.744,1.912V29.569z M179.993,36.755c-0.181,0-0.404-0.014-0.614-0.238l-3.015-3.561
			c0.811-0.213,2.354-0.602,2.354-2.138c0-2.099-3.179-2.2-4.229-2.2h-4.83v0.313c0.856,0.051,1.32,0.075,1.32,1.15v5.523
			c0,1.012-0.3,1.049-1.32,1.15v0.311h5.069v-0.311c-0.99-0.113-1.319-0.151-1.319-1.15v-2.449h0.404l3.104,3.91h3.074V36.755z"/>
		<path fill="#00897C" d="M188.061,31.13c-0.269-0.873-1.169-2.311-2.938-2.311c-0.78,0-1.605,0.373-1.605,1.186
			c0,0.676,0.286,0.95,1.546,1.477l2.203,0.912c0.511,0.212,1.651,0.936,1.651,2.299c0,1.1-0.961,2.611-3.72,2.611
			c-1.425,0-2.101-0.424-2.563-0.424c-0.315,0-0.392,0.225-0.451,0.424h-0.435v-3.087h0.435c0.301,1.263,1.171,2.675,3.074,2.675
			c1.801,0,1.874-1.238,1.874-1.398c0-0.838-0.705-1.139-1.68-1.525l-1.005-0.4c-2.564-1.025-2.564-2.1-2.564-2.674
			c0-0.763,0.465-2.461,3.315-2.461c1.199,0,1.903,0.41,2.339,0.41c0.346,0,0.42-0.187,0.495-0.424h0.449v2.711H188.061z"/>
		<path fill="#00897C" d="M196.234,37.066h-5.249v-0.311c0.81-0.063,1.395-0.113,1.395-0.888v-6.049c0-0.825-0.706-0.85-1.395-0.888
			v-0.313h5.249v0.313c-0.705,0.025-1.426,0.038-1.426,0.888v6.049c0,0.8,0.601,0.836,1.426,0.888V37.066z"/>
		<path fill="#00897C" d="M205.336,37.066h-5.354v-0.311c1.095-0.076,1.455-0.102,1.455-1.15v-6.586
			c-1.05,0.051-2.594,0.113-2.895,2.111h-0.435l0.045-2.512h8.998l0.029,2.512h-0.435c-0.3-1.998-1.844-2.061-2.879-2.111v6.586
			c0,1.063,0.359,1.087,1.469,1.15V37.066z"/>
		<path fill="#00897C" d="M219.253,28.931c-0.284,0.038-0.72,0.088-1.02,0.488l-2.864,3.887v2.299c0,1.037,0.329,1.063,1.38,1.15
			v0.311h-5.205v-0.311c1.036-0.088,1.396-0.113,1.396-1.15v-1.837l-2.744-4.149c-0.075-0.113-0.436-0.649-1.201-0.688v-0.313h5.023
			v0.313c-1.034,0-1.215,0.075-1.215,0.425c0,0.188,0.241,0.499,0.36,0.7l1.8,2.9l1.665-2.314c0.104-0.137,0.585-0.823,0.585-1.16
			c0-0.488-0.556-0.513-1.26-0.551v-0.313h3.299V28.931z"/>
	</g>
</g>
</svg>
